<?xml version="1.0" ?>
<!DOCTYPE svg  PUBLIC '-//W3C//DTD SVG 1.1//EN'  'http://www.w3.org/Graphics/SVG/1.1/DTD/svg11.dtd'>
<!-- Uploaded to: SVG Repo, www.svgrepo.com, Generator: SVG Repo Mixer Tools -->
<svg width="800px" height="800px" viewBox="0 0 32 32" enable-background="new 0 0 32 32" id="Layer_1" version="1.1" xml:space="preserve" xmlns="http://www.w3.org/2000/svg" xmlns:xlink="http://www.w3.org/1999/xlink">
<g id="team_x2C__crew_x2C__group_1_">
<g>
<g>
<g>
<g>
<path d="M8,9C6.346,9,5,7.654,5,6s1.346-3,3-3s3,1.346,3,3S9.654,9,8,9z M8,4C6.897,4,6,4.897,6,6s0.897,2,2,2       s2-0.897,2-2S9.103,4,8,4z" fill="#263238"/>
</g>
</g>
</g>
<g>
<g>
<g>
<path d="M5.5,31C5.224,31,5,30.776,5,30.5v-5C5,25.224,5.224,25,5.5,25S6,25.224,6,25.5v5       C6,30.776,5.776,31,5.5,31z" fill="#263238"/>
</g>
</g>
</g>
<g>
<g>
<g>
<path d="M3.5,21C3.224,21,3,20.776,3,20.5v-7C3,11.882,4.311,10,6,10h4.5c0.276,0,0.5,0.224,0.5,0.5       S10.776,11,10.5,11H6c-1.077,0-2,1.375-2,2.5v7C4,20.776,3.776,21,3.5,21z" fill="#263238"/>
</g>
</g>
</g>
<g>
<g>
<g>
<g>
<path d="M5,24H2c-0.551,0-1-0.448-1-1v-2c0-0.552,0.449-1,1-1h3c0.551,0,1,0.448,1,1v2C6,23.552,5.551,24,5,24        z M5,23v0.5V23L5,23L5,23z M2,21v2h2.999L5,21H2z" fill="#263238"/>
</g>
</g>
</g>
</g>
</g>
<g>
<g>
<g>
<g>
<path d="M26,9c-1.654,0-3-1.346-3-3s1.346-3,3-3s3,1.346,3,3S27.654,9,26,9z M26,4c-1.103,0-2,0.897-2,2       s0.897,2,2,2s2-0.897,2-2S27.103,4,26,4z" fill="#263238"/>
</g>
</g>
</g>
<g>
<g>
<g>
<path d="M29.5,31c-0.276,0-0.5-0.224-0.5-0.5v-10c0-0.276,0.224-0.5,0.5-0.5c0.276,0,0.5-0.225,0.5-0.5v-6       c0-1.125-0.923-2.5-2-2.5h-4.5c-0.276,0-0.5-0.224-0.5-0.5s0.224-0.5,0.5-0.5H28c1.689,0,3,1.882,3,3.5v6       c0,0.652-0.418,1.208-1,1.414V30.5C30,30.776,29.776,31,29.5,31z" fill="#263238"/>
</g>
</g>
</g>
<g>
<g>
<g>
<g>
<path d="M24,24h-1.5c-0.276,0-0.5-0.224-0.5-0.5s0.224-0.5,0.5-0.5H24v-2h-1.5c-0.276,0-0.5-0.224-0.5-0.5        s0.224-0.5,0.5-0.5H24c0.551,0,1,0.448,1,1v2C25,23.552,24.551,24,24,24z" fill="#263238"/>
</g>
</g>
</g>
</g>
</g>
<g>
<g>
<g>
<g>
<path d="M17,7c-1.654,0-3-1.346-3-3s1.346-3,3-3s3,1.346,3,3S18.654,7,17,7z M17,2c-1.103,0-2,0.897-2,2       s0.897,2,2,2s2-0.897,2-2S18.103,2,17,2z" fill="#263238"/>
</g>
</g>
</g>
<g>
<g>
<g>
<path d="M26.5,31c-0.276,0-0.5-0.224-0.5-0.5v-7c0-0.276,0.224-0.5,0.5-0.5s0.5,0.224,0.5,0.5v7       C27,30.776,26.776,31,26.5,31z" fill="#263238"/>
</g>
</g>
</g>
<g>
<g>
<g>
<path d="M8.5,31C8.224,31,8,30.776,8,30.5v-7C8,23.224,8.224,23,8.5,23S9,23.224,9,23.5v7       C9,30.776,8.776,31,8.5,31z" fill="#263238"/>
</g>
</g>
</g>
<g>
<g>
<g>
<path d="M14.5,31c-0.276,0-0.5-0.224-0.5-0.5v-6c0-0.276,0.224-0.5,0.5-0.5s0.5,0.224,0.5,0.5v6       C15,30.776,14.776,31,14.5,31z" fill="#263238"/>
</g>
</g>
</g>
<g>
<g>
<g>
<path d="M20.5,31c-0.276,0-0.5-0.224-0.5-0.5v-11c0-0.276,0.224-0.5,0.5-0.5c0.276,0,0.5-0.225,0.5-0.5v-7       c0-1.125-0.923-2.5-2-2.5h-4c-1.077,0-2.063,1.386-2.114,2.521L12.5,19.524c-0.013,0.275-0.266,0.498-0.523,0.475       c-0.276-0.013-0.489-0.247-0.476-0.523l0.387-8.002C11.961,9.835,13.309,8,15,8h4c1.689,0,3,1.882,3,3.5v7       c0,0.652-0.418,1.208-1,1.414V30.5C21,30.776,20.776,31,20.5,31z" fill="#263238"/>
</g>
</g>
</g>
<g>
<g>
<g>
<path d="M17.5,30.5v-9V30.5z" fill="#263238"/>
</g>
</g>
<g>
<g>
<path d="M17.5,31c-0.276,0-0.5-0.224-0.5-0.5v-9c0-0.276,0.224-0.5,0.5-0.5s0.5,0.224,0.5,0.5v9       C18,30.776,17.776,31,17.5,31z" fill="#263238"/>
</g>
</g>
</g>
<g>
<g>
<g>
<g>
<path d="M14,23h-3c-0.551,0-1-0.448-1-1v-2c0-0.552,0.449-1,1-1h3c0.551,0,1,0.448,1,1v2        C15,22.552,14.551,23,14,23z M14,22v0.5V22L14,22L14,22z M11,20v2h2.999L14,20H11z" fill="#263238"/>
</g>
</g>
</g>
</g>
</g>
</g>
</svg>