<svg width="56" height="56" viewBox="0 0 56 56" fill="none" xmlns="http://www.w3.org/2000/svg">
<path d="M28.7605 49.7207C29.5889 49.7207 30.2605 49.0491 30.2605 48.2207C30.2605 47.3923 29.5889 46.7207 28.7605 46.7207C27.9321 46.7207 27.2605 47.3923 27.2605 48.2207C27.2605 49.0491 27.9321 49.7207 28.7605 49.7207Z" fill="white"/>
<path d="M42.5007 38.4375C44.6754 38.4375 46.4382 36.6746 46.4382 34.5C46.4382 32.3254 44.6754 30.5625 42.5007 30.5625C40.3261 30.5625 38.5632 32.3254 38.5632 34.5C38.5632 36.6746 40.3261 38.4375 42.5007 38.4375Z" fill="white"/>
<path d="M49.5443 27.4558C47.8037 25.7133 45.4857 24.668 43.0274 24.517C40.5691 24.3661 38.1405 25.12 36.1999 26.6364C34.2592 28.1529 32.9405 30.3272 32.4927 32.749C32.0448 35.1709 32.4987 37.6729 33.7687 39.7831L26.6918 44.0671C26.1022 44.424 25.6015 44.9102 25.2275 45.4891C24.8535 46.068 24.6161 46.7243 24.5332 47.4085C24.4503 48.0927 24.5241 48.7867 24.749 49.4382C24.9739 50.0896 25.344 50.6814 25.8313 51.1687C26.3186 51.6561 26.9104 52.0262 27.5618 52.2511C28.2133 52.476 28.9073 52.5498 29.5915 52.4669C30.2757 52.3841 30.932 52.1467 31.5109 51.7727C32.0898 51.3988 32.5761 50.8981 32.933 50.3085L37.2166 43.232C39.3269 44.5019 41.829 44.9556 44.2508 44.5077C46.6726 44.0597 48.8468 42.741 50.3633 40.8003C51.8797 38.8596 52.6336 36.4311 52.4828 33.9728C52.3319 31.5146 51.2867 29.1965 49.5443 27.4558ZM42.5007 41.0627C41.2028 41.0627 39.934 40.6778 38.8548 39.9567C37.7756 39.2356 36.9345 38.2107 36.4378 37.0116C35.9411 35.8124 35.8111 34.4929 36.0643 33.2199C36.3175 31.9469 36.9426 30.7776 37.8603 29.8598C38.7781 28.9421 39.9474 28.317 41.2204 28.0638C42.4934 27.8106 43.8129 27.9406 45.0121 28.4373C46.2112 28.934 47.2361 29.7751 47.9572 30.8543C48.6783 31.9335 49.0632 33.2023 49.0632 34.5002C49.0612 36.2401 48.3691 37.908 47.1388 39.1383C45.9086 40.3685 44.2406 41.0607 42.5007 41.0627Z" fill="white"/>
<path d="M47.25 13.5625H5.25C4.90193 13.5624 4.56815 13.4241 4.32202 13.178C4.0759 12.9319 3.93759 12.5981 3.9375 12.25V6.965C3.93809 6.16239 4.25713 5.39282 4.82457 4.8252C5.39202 4.25759 6.1615 3.93833 6.96411 3.9375H45.5359C46.3385 3.93832 47.108 4.25758 47.6754 4.82519C48.2429 5.39281 48.5619 6.16239 48.5625 6.965V12.25C48.5624 12.5981 48.4241 12.9319 48.178 13.178C47.9319 13.4241 47.5981 13.5624 47.25 13.5625ZM6.5625 10.9375H45.9375V6.965C45.9376 6.91219 45.9273 6.85989 45.9071 6.81108C45.887 6.76227 45.8574 6.7179 45.8201 6.68052C45.7828 6.64314 45.7385 6.61348 45.6897 6.59323C45.641 6.57298 45.5887 6.56253 45.5359 6.5625H6.96411C6.9113 6.56253 6.85902 6.57298 6.81025 6.59323C6.76149 6.61348 6.71719 6.64314 6.67989 6.68052C6.64259 6.7179 6.61303 6.76227 6.59288 6.81108C6.57274 6.85989 6.56242 6.91219 6.5625 6.965V10.9375Z" fill="white"/>
<path d="M23.731 28.4063C23.6281 28.1494 23.4706 27.9181 23.2693 27.7283C23.0681 27.5386 22.8279 27.3949 22.5655 27.3074H22.5637L20.742 26.7007C20.4663 26.6092 20.2202 26.4454 20.0293 26.2264C19.8384 26.0074 19.7098 25.7413 19.6567 25.4557C19.6034 25.1657 19.6285 24.8668 19.7295 24.5897C19.8304 24.3127 20.0036 24.0677 20.231 23.88C20.5333 23.6073 20.7725 23.2718 20.9319 22.8971C21.0913 22.5224 21.167 22.1174 21.1538 21.7105C21.1538 20.3305 20.2823 19.1641 19.25 19.1641C18.2177 19.1641 17.3462 20.3305 17.3462 21.7105C17.333 22.1172 17.4086 22.5218 17.5676 22.8964C17.7267 23.2709 17.9655 23.6063 18.2674 23.8792C18.4952 24.0667 18.6688 24.3118 18.7701 24.589C18.8713 24.8662 18.8966 25.1654 18.8433 25.4557C18.7902 25.7413 18.6616 26.0074 18.4707 26.2264C18.2798 26.4454 18.0337 26.6092 17.7581 26.7007L15.9363 27.3074C15.6734 27.3946 15.4328 27.5383 15.2311 27.7282C15.0295 27.9182 14.8718 28.1499 14.7691 28.4071L14.7571 28.437H23.7429L23.731 28.4063Z" fill="white"/>
<path d="M37.8702 45.5175L34.4224 51.2225C34.2439 51.5247 34.0327 51.8064 33.7926 52.0625H45.6751C46.4407 52.0617 47.1747 51.7573 47.716 51.2159C48.2573 50.6746 48.5618 49.9406 48.5625 49.175V44.695C46.7184 45.8381 44.5896 46.4385 42.42 46.4275C40.8585 46.4249 39.3126 46.1157 37.8702 45.5175ZM47.25 10.9375H5.25C4.90269 10.9401 4.57034 11.0792 4.32475 11.3247C4.07916 11.5703 3.94006 11.9027 3.9375 12.25V49.175C3.93824 49.9406 4.24267 50.6745 4.78399 51.2159C5.3253 51.7572 6.05927 52.0617 6.82482 52.0625H24.2727C23.6786 51.3689 23.2423 50.5545 22.9939 49.6756C22.7455 48.7968 22.691 47.8745 22.8341 46.9725C22.9772 46.0705 23.3145 45.2103 23.8227 44.4515C24.3309 43.6927 24.9979 43.0533 25.7775 42.5776L31.4825 39.13C30.7334 37.3323 30.4398 35.3774 30.6277 33.4389C30.8155 31.5005 31.479 29.6384 32.5593 28.0179C33.6397 26.3974 35.1033 25.0688 36.8204 24.1498C38.5375 23.2308 40.455 22.75 42.4025 22.75C44.5773 22.7413 46.7111 23.3414 48.5625 24.4825V12.25C48.56 11.9027 48.4209 11.5703 48.1753 11.3247C47.9297 11.0791 47.5973 10.94 47.25 10.9375ZM11.9526 28.385L12.3376 27.44C12.579 26.8272 12.9516 26.2747 13.4292 25.8212C13.9068 25.3677 14.4779 25.0243 15.1023 24.815L15.5398 24.675C15.0003 23.7829 14.716 22.7599 14.7178 21.7174C14.6393 20.4312 15.0712 19.166 15.9197 18.1963C16.7682 17.2265 17.9648 16.6305 19.25 16.5375C20.5353 16.6305 21.732 17.2265 22.5806 18.1963C23.4291 19.166 23.8611 20.4313 23.7827 21.7175C23.7843 22.7601 23.4998 23.7831 22.9602 24.6751L23.3977 24.8151C24.0222 25.0244 24.5933 25.3678 25.0709 25.8213C25.5485 26.2748 25.9211 26.8273 26.1624 27.4401L26.5474 28.3851C26.6683 28.6807 26.714 29.0017 26.6805 29.3193C26.6469 29.637 26.5351 29.9413 26.3551 30.2051C26.1745 30.4702 25.9317 30.687 25.6479 30.8365C25.3641 30.986 25.048 31.0636 24.7273 31.0626H13.7727C13.452 31.0636 13.1359 30.986 12.8521 30.8365C12.5683 30.687 12.3255 30.4702 12.1449 30.2051C11.9648 29.9413 11.853 29.6369 11.8195 29.3193C11.7859 29.0016 11.8317 28.6806 11.9526 28.385ZM22.75 41.5625H12.25C11.9019 41.5625 11.5681 41.4242 11.3219 41.1781C11.0758 40.9319 10.9375 40.5981 10.9375 40.25C10.9375 39.9019 11.0758 39.5681 11.3219 39.3219C11.5681 39.0758 11.9019 38.9375 12.25 38.9375H22.75C23.0981 38.9375 23.4319 39.0758 23.6781 39.3219C23.9242 39.5681 24.0625 39.9019 24.0625 40.25C24.0625 40.5981 23.9242 40.9319 23.6781 41.1781C23.4319 41.4242 23.0981 41.5625 22.75 41.5625ZM26.25 36.3125H12.25C11.9019 36.3125 11.5681 36.1742 11.3219 35.9281C11.0758 35.6819 10.9375 35.3481 10.9375 35C10.9375 34.6519 11.0758 34.3181 11.3219 34.0719C11.5681 33.8258 11.9019 33.6875 12.25 33.6875H26.25C26.5981 33.6875 26.9319 33.8258 27.1781 34.0719C27.4242 34.3181 27.5625 34.6519 27.5625 35C27.5625 35.3481 27.4242 35.6819 27.1781 35.9281C26.9319 36.1742 26.5981 36.3125 26.25 36.3125Z" fill="white"/>
<path d="M10.5 10.0625C11.2249 10.0625 11.8125 9.47487 11.8125 8.75C11.8125 8.02513 11.2249 7.4375 10.5 7.4375C9.77513 7.4375 9.1875 8.02513 9.1875 8.75C9.1875 9.47487 9.77513 10.0625 10.5 10.0625Z" fill="white"/>
<path d="M14 10.0625C14.7249 10.0625 15.3125 9.47487 15.3125 8.75C15.3125 8.02513 14.7249 7.4375 14 7.4375C13.2751 7.4375 12.6875 8.02513 12.6875 8.75C12.6875 9.47487 13.2751 10.0625 14 10.0625Z" fill="white"/>
<path d="M17.5 10.0625C18.2249 10.0625 18.8125 9.47487 18.8125 8.75C18.8125 8.02513 18.2249 7.4375 17.5 7.4375C16.7751 7.4375 16.1875 8.02513 16.1875 8.75C16.1875 9.47487 16.7751 10.0625 17.5 10.0625Z" fill="white"/>
<path d="M43.75 10.0625H36.75C36.4019 10.0625 36.0681 9.92422 35.8219 9.67808C35.5758 9.43194 35.4375 9.0981 35.4375 8.75C35.4375 8.4019 35.5758 8.06806 35.8219 7.82192C36.0681 7.57578 36.4019 7.4375 36.75 7.4375H43.75C44.0981 7.4375 44.4319 7.57578 44.6781 7.82192C44.9242 8.06806 45.0625 8.4019 45.0625 8.75C45.0625 9.0981 44.9242 9.43194 44.6781 9.67808C44.4319 9.92422 44.0981 10.0625 43.75 10.0625Z" fill="white"/>
</svg>
