<svg width="57" height="56" viewBox="0 0 57 56" fill="none" xmlns="http://www.w3.org/2000/svg">
<path d="M38.9956 21.7231L35.1029 25.6135V25.6146C33.2786 31.7342 27.5987 36.2087 20.894 36.2087C16.9658 36.2087 13.4084 34.6789 10.7635 32.1958L20.9516 22.0078L26.3484 27.4048C26.9888 28.0452 28.0275 28.0455 28.6682 27.4052L43.9144 12.1693L46.0249 14.2799C47.0561 15.3112 48.8242 14.5787 48.8257 13.1214L48.8366 1.64248C48.837 1.20662 48.664 0.788366 48.3557 0.480366C47.8296 -0.0452904 47.2056 0.00272522 47.1934 0.000209598L35.7226 0.0193502C34.2649 0.0216471 33.5354 1.79002 34.5652 2.82001L36.6461 4.90087L27.4579 14.089L21.9767 8.60769C21.3364 7.96741 20.2972 7.96698 19.6566 8.60769L6.09241 22.1717C5.47029 10.3636 18.2639 2.69751 28.337 8.56974L30.7257 6.18099C19.0604 -1.37802 3.23259 6.65262 2.79902 20.8251C2.49759 31.0913 10.7447 39.4898 20.894 39.4898C30.764 39.4899 38.8162 31.5504 38.9956 21.7231Z" fill="white"/>
<path d="M55.0616 48.559L39.0984 32.5957C37.352 35.4212 34.9668 37.8115 32.1455 39.564L48.101 55.5194C48.7415 56.16 49.7804 56.1602 50.4212 55.5194L55.0616 50.879C55.702 50.2389 55.7023 49.1995 55.0616 48.559Z" fill="white"/>
</svg>
