<svg width="56" height="56" viewBox="0 0 56 56" fill="none" xmlns="http://www.w3.org/2000/svg">
<path d="M53.6866 54.25H38.9287C38.9837 54.0247 39.0044 53.7924 38.9899 53.5609C38.8864 51.866 38.3899 50.2184 37.5396 48.7484C38.6683 47.2198 40.2398 46.0753 42.0411 45.4703C43.8424 44.8653 45.7862 44.829 47.6088 45.3664C49.4314 45.9038 51.0446 46.9889 52.2295 48.4743C53.4144 49.9598 54.1136 51.7739 54.2324 53.6703C54.2369 53.7448 54.2261 53.8193 54.2007 53.8894C54.1753 53.9595 54.1358 54.0237 54.0847 54.078C54.0336 54.1323 53.9719 54.1756 53.9034 54.2052C53.835 54.2347 53.7612 54.25 53.6866 54.25ZM27.9999 33.3277C26.9548 33.3277 25.9331 33.6376 25.0641 34.2183C24.1951 34.799 23.5179 35.6244 23.118 36.59C22.7181 37.5557 22.6136 38.6182 22.8177 39.6432C23.0218 40.6683 23.5252 41.6098 24.2644 42.3486C25.0036 43.0875 25.9453 43.5906 26.9704 43.7942C27.9955 43.9979 29.058 43.8929 30.0235 43.4926C30.989 43.0924 31.814 42.4148 32.3944 41.5456C32.9747 40.6763 33.2842 39.6545 33.2838 38.6094C33.2832 37.2084 32.7263 35.865 31.7354 34.8745C30.7446 33.8841 29.4009 33.3277 27.9999 33.3277ZM13.3437 18.5292L13.336 14.3019C13.3347 14.151 13.3882 14.0048 13.4866 13.8903C13.585 13.7759 13.7215 13.701 13.8708 13.6795L17.9101 13.0758C18.0707 12.5881 18.267 12.1128 18.4974 11.6539L16.078 8.35736C15.9885 8.23615 15.9456 8.08672 15.9572 7.93647C15.9689 7.78621 16.0343 7.64519 16.1415 7.53923L19.1383 4.55329C19.2442 4.4469 19.3847 4.38216 19.5344 4.37091C19.684 4.35966 19.8327 4.40266 19.9532 4.49204L23.2454 6.91251C23.6968 6.68636 24.164 6.493 24.6432 6.33392L25.2644 2.28704C25.2856 2.13737 25.3604 2.00046 25.4748 1.9017C25.5892 1.80295 25.7356 1.74905 25.8868 1.75001L30.1174 1.75767C30.2678 1.75856 30.4129 1.81352 30.5262 1.91252C30.6394 2.01151 30.7133 2.14794 30.7343 2.29689L31.3544 6.34376C31.8331 6.50351 32.2998 6.69686 32.7512 6.92236L36.0488 4.50189C36.1693 4.41251 36.318 4.36951 36.4676 4.38075C36.6173 4.392 36.7579 4.45674 36.8637 4.56314L39.8605 7.54907C39.9677 7.65503 40.0331 7.79606 40.0448 7.94631C40.0564 8.09657 40.0135 8.24599 39.924 8.3672L37.5002 11.6681C37.7279 12.1204 37.9224 12.5887 38.0821 13.0692L42.1213 13.6883C42.2699 13.7102 42.4056 13.7849 42.5035 13.8989C42.6013 14.0128 42.6548 14.1583 42.654 14.3084L42.6616 18.538C42.663 18.6887 42.6098 18.8348 42.5119 18.9494C42.4141 19.0639 42.278 19.1393 42.129 19.1614L38.0821 19.7816C37.92 20.2692 37.7226 20.7445 37.4915 21.2034L39.9185 24.4847C40.0089 24.6057 40.0525 24.7554 40.041 24.906C40.0295 25.0566 39.9639 25.198 39.8562 25.3039L36.8702 28.2745C36.7641 28.3814 36.6231 28.4463 36.4729 28.4573C36.3228 28.4684 36.1738 28.4248 36.0532 28.3347L32.7818 25.9153C32.3163 26.1501 31.8341 26.35 31.3391 26.5136L30.7343 30.5452C30.7124 30.6946 30.6373 30.8312 30.5227 30.9296C30.4082 31.0281 30.2619 31.0819 30.1108 31.0811L25.8846 31.0734C25.734 31.0737 25.5884 31.0196 25.4745 30.9212C25.3606 30.8227 25.286 30.6865 25.2644 30.5375L24.6618 26.5147C24.1656 26.351 23.6823 26.1506 23.2158 25.9153L19.9444 28.3347C19.8239 28.4248 19.6748 28.4684 19.5247 28.4573C19.3746 28.4463 19.2335 28.3814 19.1274 28.2745L16.1338 25.2919C16.0261 25.186 15.9604 25.0446 15.949 24.894C15.9375 24.7433 15.981 24.5937 16.0715 24.4727L18.4985 21.1914C18.2643 20.7267 18.065 20.2453 17.9024 19.7509L13.8752 19.1483C13.727 19.1262 13.5917 19.0515 13.4941 18.9378C13.3965 18.8241 13.3431 18.6791 13.3437 18.5292ZM20.6204 16.415C20.6204 17.8748 21.0533 19.3018 21.8643 20.5156C22.6754 21.7293 23.8281 22.6753 25.1768 23.2339C26.5255 23.7925 28.0096 23.9386 29.4413 23.6537C30.873 23.3689 32.1881 22.6658 33.2203 21.6335C34.2524 20.6012 34.9553 19.286 35.2399 17.8542C35.5246 16.4225 35.3783 14.9384 34.8195 13.5898C34.2607 12.2412 33.3145 11.0886 32.1007 10.2777C30.8868 9.46685 29.4597 9.03417 27.9999 9.03439C26.0425 9.03468 24.1654 9.81237 22.7813 11.1964C21.3973 12.5805 20.6196 14.4576 20.6193 16.415H20.6204ZM26.4916 19.1658C26.5729 19.2471 26.6694 19.3117 26.7756 19.3557C26.8818 19.3998 26.9957 19.4224 27.1107 19.4224C27.2257 19.4224 27.3395 19.3998 27.4458 19.3557C27.552 19.3117 27.6485 19.2471 27.7298 19.1658C28.9526 17.9419 30.3132 16.1995 31.4835 14.8586C31.6139 14.682 31.6732 14.4628 31.6495 14.2446C31.6259 14.0263 31.521 13.8249 31.3558 13.6803C31.1906 13.5358 30.9771 13.4586 30.7576 13.4641C30.5381 13.4696 30.3287 13.5575 30.171 13.7102L27.0691 17.2681L25.7938 15.9928C25.6284 15.8357 25.4081 15.7493 25.1799 15.7523C24.9518 15.7552 24.7338 15.8471 24.5724 16.0085C24.4111 16.1698 24.3191 16.3878 24.3162 16.616C24.3133 16.8441 24.3996 17.0644 24.5568 17.2299L26.4916 19.1658ZM11.0107 43.8955C12.0557 43.8955 13.0772 43.5856 13.946 43.0051C14.8149 42.4246 15.4922 41.5995 15.8922 40.6341C16.2922 39.6688 16.3969 38.6065 16.1932 37.5815C15.9895 36.5566 15.4865 35.6151 14.7477 34.8761C14.009 34.137 13.0677 33.6336 12.0429 33.4295C11.018 33.2253 9.95569 33.3297 8.99014 33.7293C8.0246 34.1288 7.19921 34.8058 6.61835 35.6744C6.03748 36.543 5.72722 37.5644 5.72678 38.6094C5.7265 39.3035 5.86296 39.9908 6.12837 40.6321C6.39378 41.2734 6.78295 41.8562 7.27363 42.3471C7.76432 42.838 8.34691 43.2274 8.98812 43.4931C9.62934 43.7587 10.3166 43.8955 11.0107 43.8955ZM18.4602 48.7484C17.3316 47.2198 15.76 46.0753 13.9587 45.4703C12.1574 44.8653 10.2136 44.829 8.39102 45.3664C6.56842 45.9038 4.95524 46.9889 3.77034 48.4743C2.58544 49.9598 1.88617 51.7739 1.76741 53.6703C1.76277 53.7449 1.77349 53.8197 1.79889 53.89C1.82429 53.9603 1.86383 54.0247 1.91509 54.0791C1.96634 54.1336 2.0282 54.1769 2.09687 54.2065C2.16553 54.2361 2.23952 54.2512 2.31428 54.2511H17.0712C17.0159 54.0259 16.9956 53.7935 17.011 53.562C17.1138 51.8668 17.61 50.2187 18.4602 48.7484ZM39.703 38.6094C39.703 39.6544 40.0129 40.676 40.5935 41.545C41.1741 42.4139 41.9994 43.0912 42.9649 43.4911C43.9304 43.891 44.9928 43.9956 46.0178 43.7918C47.0428 43.5879 47.9843 43.0846 48.7232 42.3457C49.4622 41.6067 49.9654 40.6652 50.1693 39.6402C50.3732 38.6152 50.2686 37.5528 49.8686 36.5873C49.4687 35.6218 48.7915 34.7966 47.9225 34.216C47.0536 33.6354 46.032 33.3255 44.9869 33.3255C43.5856 33.3255 42.2416 33.8822 41.2507 34.8731C40.2597 35.864 39.703 37.208 39.703 38.6094ZM27.9999 44.9892C25.6443 44.9893 23.3772 45.8869 21.66 47.4995C19.9428 49.112 18.9046 51.3183 18.7566 53.6692C18.752 53.7438 18.7627 53.8186 18.7881 53.8889C18.8135 53.9593 18.8531 54.0236 18.9043 54.078C18.9556 54.1325 19.0174 54.1758 19.0861 54.2054C19.1547 54.235 19.2287 54.2502 19.3035 54.25H36.6941C36.7689 54.2502 36.8429 54.235 36.9115 54.2054C36.9802 54.1758 37.0421 54.1325 37.0933 54.078C37.1446 54.0236 37.1841 53.9593 37.2095 53.8889C37.2349 53.8186 37.2456 53.7438 37.241 53.6692C37.093 51.3186 36.0551 49.1127 34.3384 47.5002C32.6217 45.8878 30.3552 44.9899 27.9999 44.9892Z" fill="white"/>
</svg>
