<svg width="57" height="56" viewBox="0 0 57 56" fill="none" xmlns="http://www.w3.org/2000/svg">
<path fill-rule="evenodd" clip-rule="evenodd" d="M14.6843 37.0298L19.2917 45.0101C19.9405 46.134 19.5519 47.5843 18.4281 48.2331C17.3043 48.8819 15.854 48.4934 15.205 47.3695L9.99802 38.3506C11.5606 37.9137 13.1178 37.453 14.6842 37.0297L14.6843 37.0298ZM47.3058 28.7027C47.0451 28.5528 46.9552 28.22 47.105 27.9592C47.2549 27.6985 47.5877 27.6086 47.8484 27.7584L52.8653 30.6549C53.126 30.8047 53.2159 31.1376 53.0661 31.3983C52.9162 31.6591 52.5834 31.749 52.3226 31.5991L47.3058 28.7027ZM44.6247 15.7214C44.4749 15.9821 44.1421 16.072 43.8813 15.9222C43.6206 15.7723 43.5306 15.4395 43.6805 15.1788L46.577 10.162C46.7268 9.90121 47.0596 9.8113 47.3204 9.96115C47.5811 10.111 47.671 10.4438 47.5212 10.7046L44.6247 15.7214ZM48.6528 21.6587C48.3614 21.7366 48.0619 21.5634 47.9842 21.2721C47.9064 20.9807 48.0794 20.6812 48.3708 20.6034L53.9663 19.1041C54.2577 19.0263 54.5572 19.1994 54.6349 19.4908C54.7128 19.7821 54.5397 20.0816 54.2483 20.1594L48.6528 21.6587ZM33.0092 7.52394C31.8953 7.82243 31.2281 8.97786 31.5266 10.0917L39.3218 39.1839C39.6203 40.2977 40.7757 40.9648 41.8896 40.6664C43.0035 40.3679 43.6705 39.2124 43.3722 38.0986L35.577 9.00641C35.2786 7.89265 34.1231 7.22557 33.0092 7.52394ZM17.1982 35.2724L14.3227 24.5412C11.4385 25.4349 8.48121 26.0816 5.56396 26.8632C2.7061 27.6289 0.994379 30.5936 1.81185 33.6442C2.62932 36.6948 5.59393 38.4064 8.45179 37.6407C11.3691 36.859 14.2534 35.9404 17.1982 35.2724ZM15.3636 24.2052C23.3465 21.5196 28.5567 17.029 31.1575 12.9398L37.5781 36.902C33.2811 34.6611 26.5236 33.3772 18.2675 35.0428L15.3636 24.2051V24.2052ZM39.6456 19.9646L42.4464 19.9894C42.6957 19.9916 42.9052 20.1539 42.9698 20.3948L44.0805 24.5398C44.145 24.7806 44.0447 25.0259 43.8299 25.1526L41.4168 26.5743L39.6456 19.9646Z" fill="#FFC605"/>
</svg>
