<svg width="56" height="56" viewBox="0 0 56 56" fill="none" xmlns="http://www.w3.org/2000/svg">
<path d="M38.2046 21.7231L34.3119 25.6136V25.6147C32.4875 31.7342 26.8077 36.2088 20.103 36.2088C16.1748 36.2088 12.6174 34.6789 9.97248 32.1959L20.1605 22.0078L25.5574 27.4048C26.1978 28.0452 27.2364 28.0456 27.8772 27.4053L43.1234 12.1693L45.2339 14.2799C46.2651 15.3112 48.0332 14.5788 48.0346 13.1214L48.0456 1.64254C48.046 1.20668 47.873 0.788427 47.5647 0.480427C47.0386 -0.0452293 46.4146 0.00278626 46.4023 0.000270633L34.9316 0.0194113C33.4739 0.0217081 32.7444 1.79008 33.7742 2.82007L35.8551 4.90093L26.6669 14.0891L21.1857 8.60776C20.5454 7.96747 19.5061 7.96704 18.8655 8.60776L5.3014 22.1718C4.67927 10.3637 17.4729 2.69757 27.546 8.5698L29.9347 6.18105C18.2693 -1.37796 2.44157 6.65268 2.00801 20.8252C1.70657 31.0913 9.95366 39.4899 20.103 39.4899C29.973 39.49 38.0252 31.5505 38.2046 21.7231Z" fill="#FFC605"/>
<path d="M54.2706 48.559L38.3074 32.5957C36.561 35.4212 34.1758 37.8115 31.3545 39.564L47.31 55.5194C47.9505 56.16 48.9894 56.1602 49.6302 55.5194L54.2706 50.879C54.911 50.2389 54.9112 49.1995 54.2706 48.559Z" fill="#FFC605"/>
</svg>
