<svg width="349" height="27" viewBox="0 0 349 27" fill="none" xmlns="http://www.w3.org/2000/svg">
<path d="M6.775 20.8C5.44167 20.8 4.26667 20.5875 3.25 20.1625C2.24167 19.7375 1.45 19.1042 0.875 18.2625C0.308333 17.4125 0.025 16.3583 0.025 15.1C0.025 14.9667 0.025 14.8458 0.025 14.7375C0.025 14.6208 0.025 14.4958 0.025 14.3625H3.9125C3.9125 14.4875 3.9125 14.6 3.9125 14.7C3.9125 14.7917 3.9125 14.9 3.9125 15.025C3.9125 15.8833 4.15417 16.5417 4.6375 17C5.12083 17.4583 5.8375 17.6875 6.7875 17.6875C7.74583 17.6875 8.48333 17.5375 9 17.2375C9.51667 16.9292 9.775 16.425 9.775 15.725C9.775 15.2333 9.57917 14.8 9.1875 14.425C8.80417 14.05 8.27917 13.7167 7.6125 13.425C6.95417 13.125 6.2 12.8458 5.35 12.5875C4.425 12.2958 3.56667 11.9125 2.775 11.4375C1.98333 10.9625 1.34583 10.3583 0.8625 9.625C0.3875 8.89167 0.15 7.9875 0.15 6.9125C0.15 5.82917 0.4375 4.90833 1.0125 4.15C1.5875 3.38333 2.37083 2.8 3.3625 2.4C4.35417 1.99167 5.475 1.7875 6.725 1.7875C8.03333 1.7875 9.1875 1.99167 10.1875 2.4C11.1958 2.8 11.9833 3.40417 12.55 4.2125C13.125 5.0125 13.4125 6.0125 13.4125 7.2125C13.4125 7.34583 13.4125 7.47083 13.4125 7.5875C13.4125 7.69583 13.4125 7.82083 13.4125 7.9625H9.5375C9.5375 7.87083 9.5375 7.775 9.5375 7.675C9.5375 7.575 9.5375 7.47917 9.5375 7.3875C9.5375 6.57917 9.3125 5.95833 8.8625 5.525C8.42083 5.09167 7.725 4.875 6.775 4.875C5.85833 4.875 5.14583 5.04167 4.6375 5.375C4.1375 5.70833 3.8875 6.22083 3.8875 6.9125C3.8875 7.4125 4.06667 7.8375 4.425 8.1875C4.79167 8.5375 5.29167 8.85 5.925 9.125C6.55833 9.4 7.27917 9.675 8.0875 9.95C9.1875 10.3333 10.1458 10.7583 10.9625 11.225C11.7875 11.6833 12.425 12.2625 12.875 12.9625C13.325 13.6542 13.55 14.5375 13.55 15.6125C13.55 16.7125 13.2667 17.65 12.7 18.425C12.1333 19.2 11.3375 19.7917 10.3125 20.2C9.29583 20.6 8.11667 20.8 6.775 20.8ZM17.5762 15.025V12.4625H26.3762L26.0012 13.1125C26.0012 13.0458 26.0012 12.9833 26.0012 12.925C26.0012 12.8583 26.0012 12.7958 26.0012 12.7375C26.0012 12.2625 25.8887 11.8083 25.6637 11.375C25.4387 10.9333 25.0887 10.575 24.6137 10.3C24.147 10.0167 23.547 9.875 22.8137 9.875C22.0803 9.875 21.447 10.0333 20.9137 10.35C20.3887 10.6583 19.9845 11.1042 19.7012 11.6875C19.4262 12.2708 19.2887 12.975 19.2887 13.8C19.2887 14.65 19.422 15.3792 19.6887 15.9875C19.9637 16.5875 20.3678 17.05 20.9012 17.375C21.4428 17.7 22.1137 17.8625 22.9137 17.8625C23.4303 17.8625 23.8762 17.8167 24.2512 17.725C24.6262 17.625 24.9303 17.5 25.1637 17.35C25.4053 17.2 25.5887 17.0333 25.7137 16.85C25.8387 16.6667 25.9137 16.4875 25.9387 16.3125H29.7637C29.7137 16.8708 29.522 17.4208 29.1887 17.9625C28.8553 18.4958 28.3928 18.9792 27.8012 19.4125C27.2095 19.8375 26.4887 20.175 25.6387 20.425C24.797 20.675 23.8345 20.8 22.7512 20.8C21.2845 20.8 20.0053 20.5083 18.9137 19.925C17.822 19.3333 16.9762 18.5208 16.3762 17.4875C15.7762 16.4458 15.4762 15.2458 15.4762 13.8875C15.4762 12.5125 15.7803 11.3083 16.3887 10.275C17.0053 9.23333 17.8595 8.425 18.9512 7.85C20.0512 7.26667 21.322 6.975 22.7637 6.975C24.2387 6.975 25.5137 7.27083 26.5887 7.8625C27.6637 8.44583 28.4928 9.26667 29.0762 10.325C29.6595 11.375 29.9512 12.6 29.9512 14C29.9512 14.2083 29.947 14.4083 29.9387 14.6C29.9303 14.7917 29.9178 14.9333 29.9012 15.025H17.5762ZM36.8729 20.775C35.9062 20.775 35.0437 20.6208 34.2854 20.3125C33.5354 20.0042 32.9479 19.5583 32.5229 18.975C32.0979 18.3917 31.8854 17.6833 31.8854 16.85C31.8854 15.9083 32.1437 15.1417 32.6604 14.55C33.177 13.9583 33.8604 13.5083 34.7104 13.2C35.5687 12.8833 36.4979 12.675 37.4979 12.575C38.9562 12.4333 39.9604 12.3042 40.5104 12.1875C41.0687 12.0708 41.3479 11.8667 41.3479 11.575C41.3479 11.5667 41.3479 11.5583 41.3479 11.55C41.3479 11.0583 41.1104 10.6708 40.6354 10.3875C40.1687 10.1042 39.5145 9.9625 38.6729 9.9625C37.7812 9.9625 37.0979 10.125 36.6229 10.45C36.1562 10.7667 35.9229 11.2542 35.9229 11.9125H32.1104C32.1104 10.8458 32.3979 9.94583 32.9729 9.2125C33.5562 8.47917 34.3437 7.925 35.3354 7.55C36.327 7.16667 37.4479 6.975 38.6979 6.975C39.8645 6.975 40.9437 7.15417 41.9354 7.5125C42.927 7.8625 43.7229 8.39167 44.3229 9.1C44.9312 9.80833 45.2354 10.7083 45.2354 11.8C45.2354 11.975 45.2354 12.15 45.2354 12.325C45.2354 12.4917 45.2354 12.6625 45.2354 12.8375V17.5375C45.2354 17.8792 45.2437 18.2083 45.2604 18.525C45.2854 18.8333 45.3354 19.1167 45.4104 19.375C45.4937 19.6667 45.5979 19.9083 45.7229 20.1C45.8479 20.2917 45.952 20.425 46.0354 20.5H42.2229C42.1645 20.4417 42.0729 20.3208 41.9479 20.1375C41.8312 19.9542 41.7312 19.7417 41.6479 19.5C41.5479 19.2083 41.4729 18.9167 41.4229 18.625C41.3812 18.325 41.3604 17.975 41.3604 17.575L42.1604 18.125C41.927 18.675 41.5479 19.15 41.0229 19.55C40.5062 19.9417 39.8895 20.2458 39.1729 20.4625C38.4645 20.6708 37.6979 20.775 36.8729 20.775ZM37.9104 17.875C38.5187 17.875 39.0854 17.7667 39.6104 17.55C40.1437 17.325 40.577 16.975 40.9104 16.5C41.2437 16.025 41.4104 15.4042 41.4104 14.6375V13.3L42.3729 14.2375C41.8229 14.4375 41.1854 14.6042 40.4604 14.7375C39.7437 14.8625 39.027 14.9625 38.3104 15.0375C37.4604 15.1208 36.8229 15.2667 36.3979 15.475C35.9812 15.675 35.7729 16.0167 35.7729 16.5C35.7729 16.9583 35.952 17.3042 36.3104 17.5375C36.6687 17.7625 37.202 17.875 37.9104 17.875ZM48.0711 20.5V7.225H51.9586V11.8L51.1586 11.3C51.2503 10.675 51.4169 10.1 51.6586 9.575C51.9003 9.05 52.2128 8.59583 52.5961 8.2125C52.9794 7.82083 53.4336 7.51667 53.9586 7.3C54.4919 7.08333 55.1003 6.975 55.7836 6.975C56.3169 6.975 56.7336 7.01667 57.0336 7.1C57.3419 7.175 57.5336 7.23333 57.6086 7.275L56.9711 10.75C56.8961 10.7083 56.7294 10.6417 56.4711 10.55C56.2128 10.4583 55.8794 10.4125 55.4711 10.4125C54.8044 10.4125 54.2461 10.525 53.7961 10.75C53.3461 10.975 52.9836 11.275 52.7086 11.65C52.4419 12.0167 52.2503 12.425 52.1336 12.875C52.0169 13.325 51.9586 13.7792 51.9586 14.2375V20.5H48.0711ZM66.0135 20.8C64.5551 20.8 63.276 20.5083 62.176 19.925C61.076 19.3333 60.2218 18.5125 59.6135 17.4625C59.0135 16.4125 58.7135 15.2 58.7135 13.825C58.7135 12.4333 59.0135 11.2292 59.6135 10.2125C60.2218 9.1875 61.076 8.39167 62.176 7.825C63.276 7.25833 64.5551 6.975 66.0135 6.975C67.1051 6.975 68.0718 7.1375 68.9135 7.4625C69.7551 7.77917 70.4593 8.2 71.026 8.725C71.5926 9.25 72.0218 9.825 72.3135 10.45C72.6051 11.075 72.751 11.6958 72.751 12.3125C72.751 12.3208 72.751 12.3375 72.751 12.3625C72.751 12.3792 72.751 12.3958 72.751 12.4125H68.9135C68.9135 12.3625 68.9093 12.3167 68.901 12.275C68.901 12.225 68.8926 12.175 68.876 12.125C68.8093 11.775 68.6635 11.4458 68.4385 11.1375C68.2135 10.8292 67.8968 10.5792 67.4885 10.3875C67.0885 10.1875 66.5885 10.0875 65.9885 10.0875C65.3468 10.0875 64.7718 10.2292 64.2635 10.5125C63.7635 10.7958 63.3676 11.2167 63.076 11.775C62.7843 12.325 62.6385 13.0083 62.6385 13.825C62.6385 14.625 62.7843 15.3167 63.076 15.9C63.3676 16.475 63.7635 16.9167 64.2635 17.225C64.7718 17.5333 65.3468 17.6875 65.9885 17.6875C66.6468 17.6875 67.1843 17.5875 67.601 17.3875C68.0176 17.1792 68.3301 16.9042 68.5385 16.5625C68.7468 16.2125 68.8718 15.8292 68.9135 15.4125H72.751C72.751 16.0292 72.6051 16.6583 72.3135 17.3C72.0301 17.9333 71.6051 18.5125 71.0385 19.0375C70.4801 19.5625 69.7801 19.9875 68.9385 20.3125C68.0968 20.6375 67.1218 20.8 66.0135 20.8ZM84.5207 20.5V15.775C84.5207 15.6083 84.5207 15.3792 84.5207 15.0875C84.5207 14.7958 84.5207 14.5 84.5207 14.2C84.5207 13.9 84.5207 13.6583 84.5207 13.475C84.5207 12.4583 84.3374 11.675 83.9707 11.125C83.604 10.5667 82.9332 10.2875 81.9582 10.2875C81.3249 10.2875 80.7915 10.4167 80.3582 10.675C79.9249 10.925 79.5957 11.2792 79.3707 11.7375C79.154 12.1958 79.0457 12.7333 79.0457 13.35L77.9207 12.575C77.9207 11.4667 78.1582 10.4958 78.6332 9.6625C79.1082 8.82083 79.7624 8.1625 80.5957 7.6875C81.4374 7.2125 82.4082 6.975 83.5082 6.975C85.1332 6.975 86.354 7.45417 87.1707 8.4125C87.9874 9.3625 88.3957 10.6875 88.3957 12.3875C88.3957 12.8208 88.3957 13.3417 88.3957 13.95C88.3957 14.5583 88.3957 15.2625 88.3957 16.0625V20.5H84.5207ZM75.1707 20.5V0.962499H79.0457V20.5H75.1707ZM99.6965 5.0625L101.446 3.2125V10.85L100.571 9.75H107.371V12.75H100.571L101.446 11.65V19.35L99.6965 17.5H108.759V20.5H97.5465V2.0625H108.759V5.0625H99.6965ZM121.142 20.5V14.8625C121.142 14.5458 121.142 14.2583 121.142 14C121.142 13.7417 121.142 13.5083 121.142 13.3C121.142 12.75 121.071 12.25 120.929 11.8C120.788 11.3417 120.533 10.975 120.167 10.7C119.8 10.425 119.271 10.2875 118.579 10.2875C117.979 10.2875 117.458 10.425 117.017 10.7C116.583 10.975 116.25 11.3583 116.017 11.85C115.783 12.3417 115.667 12.9083 115.667 13.55L114.592 12.775C114.592 11.625 114.842 10.6167 115.342 9.75C115.842 8.88333 116.517 8.20417 117.367 7.7125C118.225 7.22083 119.175 6.975 120.217 6.975C121.308 6.975 122.204 7.19583 122.904 7.6375C123.613 8.07083 124.138 8.67917 124.479 9.4625C124.829 10.2375 125.004 11.1458 125.004 12.1875C125.004 12.6125 125.004 13.0875 125.004 13.6125C125.004 14.1375 125.004 14.675 125.004 15.225V20.5H121.142ZM111.792 20.5V7.225H115.667V20.5H111.792ZM137.068 18.925C137.884 19.0083 138.597 19.1667 139.205 19.4C139.822 19.625 140.301 19.9625 140.643 20.4125C140.984 20.8542 141.155 21.4458 141.155 22.1875C141.155 23.0458 140.872 23.775 140.305 24.375C139.747 24.9833 138.926 25.4458 137.843 25.7625C136.759 26.0792 135.447 26.2375 133.905 26.2375C131.63 26.2375 129.868 25.9083 128.618 25.25C127.376 24.6 126.755 23.7292 126.755 22.6375C126.755 22.3292 126.788 22.05 126.855 21.8C126.93 21.5583 127.022 21.35 127.13 21.175L130.655 21.6875C130.613 21.7458 130.568 21.8333 130.518 21.95C130.476 22.075 130.455 22.2292 130.455 22.4125C130.455 22.8542 130.784 23.1833 131.443 23.4C132.109 23.6167 132.968 23.725 134.018 23.725C134.759 23.725 135.393 23.6708 135.918 23.5625C136.451 23.4625 136.855 23.3125 137.13 23.1125C137.413 22.9125 137.555 22.6833 137.555 22.425C137.555 22.05 137.372 21.8042 137.005 21.6875C136.647 21.5708 136.23 21.4875 135.755 21.4375L130.73 20.925C129.805 20.8333 129.038 20.5667 128.43 20.125C127.822 19.6833 127.518 19.0875 127.518 18.3375C127.518 17.8708 127.647 17.4458 127.905 17.0625C128.163 16.6708 128.459 16.35 128.793 16.1C129.126 15.8417 129.405 15.6792 129.63 15.6125L131.605 16.6125C131.447 16.6375 131.259 16.7375 131.043 16.9125C130.834 17.0875 130.73 17.2917 130.73 17.525C130.73 17.7583 130.847 17.9583 131.08 18.125C131.322 18.2917 131.759 18.4042 132.393 18.4625L137.068 18.925ZM138.38 7.225H141.793L140.405 12.325C140.147 13.2917 139.763 14.1542 139.255 14.9125C138.747 15.6625 138.068 16.2542 137.218 16.6875C136.376 17.1208 135.313 17.3375 134.03 17.3375C132.68 17.3375 131.509 17.1292 130.518 16.7125C129.534 16.2958 128.776 15.7083 128.243 14.95C127.709 14.1833 127.443 13.2792 127.443 12.2375C127.443 11.1958 127.713 10.2792 128.255 9.4875C128.805 8.69583 129.551 8.07917 130.493 7.6375C131.443 7.19583 132.518 6.975 133.718 6.975C134.626 6.975 135.455 7.125 136.205 7.425C136.963 7.71667 137.572 8.10417 138.03 8.5875C138.497 9.07083 138.738 9.60417 138.755 10.1875L138.043 10.375L138.38 7.225ZM134.005 14.5C134.555 14.5 135.038 14.4125 135.455 14.2375C135.872 14.0542 136.197 13.7917 136.43 13.45C136.663 13.1 136.78 12.6792 136.78 12.1875C136.78 11.7042 136.663 11.2917 136.43 10.95C136.197 10.6083 135.872 10.3458 135.455 10.1625C135.038 9.97917 134.555 9.8875 134.005 9.8875C133.48 9.8875 133.005 9.98333 132.58 10.175C132.163 10.3583 131.834 10.625 131.593 10.975C131.351 11.3167 131.23 11.7333 131.23 12.225C131.23 12.7083 131.347 13.1208 131.58 13.4625C131.813 13.7958 132.138 14.0542 132.555 14.2375C132.972 14.4125 133.455 14.5 134.005 14.5ZM143.527 20.5V7.225H147.364V20.5H143.527ZM145.439 5.0625C144.839 5.0625 144.314 4.90417 143.864 4.5875C143.422 4.27083 143.202 3.825 143.202 3.25C143.202 2.66667 143.422 2.21667 143.864 1.9C144.314 1.58333 144.839 1.425 145.439 1.425C146.047 1.425 146.572 1.58333 147.014 1.9C147.464 2.21667 147.689 2.66667 147.689 3.25C147.689 3.83333 147.464 4.28333 147.014 4.6C146.572 4.90833 146.047 5.0625 145.439 5.0625ZM159.57 20.5V14.8625C159.57 14.5458 159.57 14.2583 159.57 14C159.57 13.7417 159.57 13.5083 159.57 13.3C159.57 12.75 159.499 12.25 159.357 11.8C159.215 11.3417 158.961 10.975 158.595 10.7C158.228 10.425 157.699 10.2875 157.007 10.2875C156.407 10.2875 155.886 10.425 155.445 10.7C155.011 10.975 154.678 11.3583 154.445 11.85C154.211 12.3417 154.095 12.9083 154.095 13.55L153.02 12.775C153.02 11.625 153.27 10.6167 153.77 9.75C154.27 8.88333 154.945 8.20417 155.795 7.7125C156.653 7.22083 157.603 6.975 158.645 6.975C159.736 6.975 160.632 7.19583 161.332 7.6375C162.04 8.07083 162.565 8.67917 162.907 9.4625C163.257 10.2375 163.432 11.1458 163.432 12.1875C163.432 12.6125 163.432 13.0875 163.432 13.6125C163.432 14.1375 163.432 14.675 163.432 15.225V20.5H159.57ZM150.22 20.5V7.225H154.095V20.5H150.22ZM167.82 15.025V12.4625H176.62L176.245 13.1125C176.245 13.0458 176.245 12.9833 176.245 12.925C176.245 12.8583 176.245 12.7958 176.245 12.7375C176.245 12.2625 176.133 11.8083 175.908 11.375C175.683 10.9333 175.333 10.575 174.858 10.3C174.391 10.0167 173.791 9.875 173.058 9.875C172.324 9.875 171.691 10.0333 171.158 10.35C170.633 10.6583 170.229 11.1042 169.945 11.6875C169.67 12.2708 169.533 12.975 169.533 13.8C169.533 14.65 169.666 15.3792 169.933 15.9875C170.208 16.5875 170.612 17.05 171.145 17.375C171.687 17.7 172.358 17.8625 173.158 17.8625C173.674 17.8625 174.12 17.8167 174.495 17.725C174.87 17.625 175.174 17.5 175.408 17.35C175.649 17.2 175.833 17.0333 175.958 16.85C176.083 16.6667 176.158 16.4875 176.183 16.3125H180.008C179.958 16.8708 179.766 17.4208 179.433 17.9625C179.099 18.4958 178.637 18.9792 178.045 19.4125C177.454 19.8375 176.733 20.175 175.883 20.425C175.041 20.675 174.079 20.8 172.995 20.8C171.529 20.8 170.249 20.5083 169.158 19.925C168.066 19.3333 167.22 18.5208 166.62 17.4875C166.02 16.4458 165.72 15.2458 165.72 13.8875C165.72 12.5125 166.024 11.3083 166.633 10.275C167.249 9.23333 168.104 8.425 169.195 7.85C170.295 7.26667 171.566 6.975 173.008 6.975C174.483 6.975 175.758 7.27083 176.833 7.8625C177.908 8.44583 178.737 9.26667 179.32 10.325C179.904 11.375 180.195 12.6 180.195 14C180.195 14.2083 180.191 14.4083 180.183 14.6C180.174 14.7917 180.162 14.9333 180.145 15.025H167.82ZM196.679 20.8C195.529 20.8 194.454 20.5917 193.454 20.175C192.454 19.7583 191.575 19.1458 190.817 18.3375C190.059 17.5292 189.463 16.5333 189.029 15.35C188.596 14.1583 188.379 12.7958 188.379 11.2625C188.379 9.72083 188.592 8.3625 189.017 7.1875C189.45 6.00417 190.046 5.0125 190.804 4.2125C191.563 3.4125 192.442 2.80833 193.442 2.4C194.442 1.99167 195.521 1.7875 196.679 1.7875C197.829 1.7875 198.904 1.99167 199.904 2.4C200.913 2.80833 201.796 3.4125 202.554 4.2125C203.313 5.0125 203.904 6.00417 204.329 7.1875C204.754 8.3625 204.967 9.72083 204.967 11.2625C204.967 12.7958 204.75 14.1583 204.317 15.35C203.892 16.5333 203.296 17.5292 202.529 18.3375C201.771 19.1458 200.888 19.7583 199.879 20.175C198.879 20.5917 197.813 20.8 196.679 20.8ZM196.679 17.6875C197.454 17.6875 198.171 17.475 198.829 17.05C199.496 16.625 200.029 15.9417 200.429 15C200.829 14.05 201.029 12.8042 201.029 11.2625C201.029 9.7125 200.825 8.47083 200.417 7.5375C200.017 6.60417 199.488 5.93333 198.829 5.525C198.171 5.10833 197.454 4.9 196.679 4.9C195.904 4.9 195.184 5.10833 194.517 5.525C193.859 5.93333 193.329 6.60417 192.929 7.5375C192.529 8.47083 192.329 9.7125 192.329 11.2625C192.329 12.8125 192.529 14.0583 192.929 15C193.329 15.9417 193.859 16.625 194.517 17.05C195.184 17.475 195.904 17.6875 196.679 17.6875ZM207.519 25.9625V7.225H211.407V25.9625H207.519ZM215.507 20.8C214.457 20.8 213.494 20.5208 212.619 19.9625C211.744 19.3958 211.044 18.6375 210.519 17.6875C209.994 16.7292 209.732 15.6542 209.732 14.4625C209.732 14.4292 209.732 14.4 209.732 14.375C209.732 14.3417 209.732 14.3042 209.732 14.2625L211.407 14.225C211.407 14.25 211.407 14.275 211.407 14.3C211.407 14.325 211.407 14.35 211.407 14.375C211.407 14.9917 211.557 15.5333 211.857 16C212.157 16.4583 212.544 16.8125 213.019 17.0625C213.494 17.3125 213.99 17.4375 214.507 17.4375C215.357 17.4375 216.094 17.1458 216.719 16.5625C217.353 15.9708 217.669 15.05 217.669 13.8C217.669 12.55 217.357 11.6417 216.732 11.075C216.107 10.5 215.365 10.2125 214.507 10.2125C213.99 10.2125 213.494 10.3375 213.019 10.5875C212.544 10.8292 212.157 11.175 211.857 11.625C211.557 12.075 211.407 12.6125 211.407 13.2375L209.732 13.1375C209.732 11.9375 209.994 10.8792 210.519 9.9625C211.044 9.0375 211.744 8.30833 212.619 7.775C213.494 7.24167 214.457 6.975 215.507 6.975C216.582 6.975 217.586 7.24167 218.519 7.775C219.453 8.3 220.207 9.07083 220.782 10.0875C221.365 11.1042 221.657 12.3417 221.657 13.8C221.657 15.325 221.374 16.6083 220.807 17.65C220.24 18.6917 219.49 19.4792 218.557 20.0125C217.624 20.5375 216.607 20.8 215.507 20.8ZM230.499 20.775C229.991 20.775 229.466 20.7292 228.924 20.6375C228.391 20.5542 227.891 20.3833 227.424 20.125C226.966 19.8583 226.595 19.4708 226.312 18.9625C226.029 18.4542 225.887 17.7833 225.887 16.95C225.887 16.7667 225.887 16.5792 225.887 16.3875C225.887 16.1958 225.887 16.0042 225.887 15.8125V10.225H222.824V7.225H223.687C224.187 7.225 224.583 7.20417 224.874 7.1625C225.174 7.12083 225.395 7.01667 225.537 6.85C225.687 6.675 225.783 6.40417 225.824 6.0375C225.866 5.67083 225.887 5.16667 225.887 4.525V2.85H229.774V7.225H233.637V10.225H229.774V15C229.774 15.15 229.774 15.2958 229.774 15.4375C229.774 15.5792 229.774 15.7167 229.774 15.85C229.774 16.425 229.841 16.8917 229.974 17.25C230.116 17.6083 230.462 17.7875 231.012 17.7875C231.287 17.7875 231.545 17.7625 231.787 17.7125C232.037 17.6625 232.224 17.6125 232.349 17.5625V20.475C232.174 20.55 231.929 20.6167 231.612 20.675C231.295 20.7417 230.924 20.775 230.499 20.775ZM235.836 20.5V7.225H239.674V20.5H235.836ZM237.749 5.0625C237.149 5.0625 236.624 4.90417 236.174 4.5875C235.732 4.27083 235.511 3.825 235.511 3.25C235.511 2.66667 235.732 2.21667 236.174 1.9C236.624 1.58333 237.149 1.425 237.749 1.425C238.357 1.425 238.882 1.58333 239.324 1.9C239.774 2.21667 239.999 2.66667 239.999 3.25C239.999 3.83333 239.774 4.28333 239.324 4.6C238.882 4.90833 238.357 5.0625 237.749 5.0625ZM250.817 20.5V15.3625C250.817 14.8708 250.817 14.4458 250.817 14.0875C250.817 13.7208 250.817 13.4167 250.817 13.175C250.817 12.8333 250.796 12.4958 250.754 12.1625C250.721 11.8292 250.637 11.5208 250.504 11.2375C250.379 10.9458 250.183 10.7167 249.917 10.55C249.65 10.375 249.287 10.2875 248.829 10.2875C248.404 10.2875 248.037 10.3792 247.729 10.5625C247.421 10.7375 247.167 10.9833 246.967 11.3C246.775 11.6083 246.633 11.9667 246.542 12.375C246.45 12.775 246.404 13.1958 246.404 13.6375L245.342 12.7625C245.342 11.6375 245.546 10.6417 245.954 9.775C246.362 8.9 246.942 8.21667 247.692 7.725C248.45 7.225 249.346 6.975 250.379 6.975C251.487 6.975 252.35 7.2125 252.967 7.6875C253.592 8.15417 254.029 8.77917 254.279 9.5625C254.537 10.3375 254.667 11.1958 254.667 12.1375C254.667 12.4958 254.667 12.9792 254.667 13.5875C254.667 14.1958 254.667 14.925 254.667 15.775V20.5H250.817ZM242.529 20.5V7.225H246.404V20.5H242.529ZM259.067 20.5V15.375C259.067 14.8667 259.067 14.4292 259.067 14.0625C259.067 13.6958 259.067 13.3917 259.067 13.15C259.067 12.7833 259.046 12.4333 259.004 12.1C258.962 11.7583 258.875 11.45 258.742 11.175C258.608 10.9 258.408 10.6833 258.142 10.525C257.875 10.3667 257.512 10.2875 257.054 10.2875C256.629 10.2875 256.262 10.3792 255.954 10.5625C255.654 10.7375 255.408 10.9792 255.217 11.2875C255.025 11.5958 254.883 11.9458 254.792 12.3375C254.708 12.7292 254.667 13.1375 254.667 13.5625L253.604 12.7C253.604 11.5917 253.804 10.6083 254.204 9.75C254.612 8.89167 255.187 8.21667 255.929 7.725C256.679 7.225 257.575 6.975 258.617 6.975C259.7 6.975 260.554 7.20417 261.179 7.6625C261.812 8.12083 262.262 8.73333 262.529 9.5C262.804 10.2583 262.942 11.1083 262.942 12.05C262.942 12.425 262.942 12.9083 262.942 13.5C262.942 14.0917 262.942 14.8125 262.942 15.6625V20.5H259.067ZM265.695 20.5V7.225H269.532V20.5H265.695ZM267.607 5.0625C267.007 5.0625 266.482 4.90417 266.032 4.5875C265.59 4.27083 265.37 3.825 265.37 3.25C265.37 2.66667 265.59 2.21667 266.032 1.9C266.482 1.58333 267.007 1.425 267.607 1.425C268.215 1.425 268.74 1.58333 269.182 1.9C269.632 2.21667 269.857 2.66667 269.857 3.25C269.857 3.83333 269.632 4.28333 269.182 4.6C268.74 4.90833 268.215 5.0625 267.607 5.0625ZM275.775 17.4625H282.975V20.5H271.625V17.625L278.65 10.1125L278.738 10.25H271.875V7.225H282.825V10.1L275.863 17.5875L275.775 17.4625ZM289.412 20.775C288.445 20.775 287.583 20.6208 286.824 20.3125C286.074 20.0042 285.487 19.5583 285.062 18.975C284.637 18.3917 284.424 17.6833 284.424 16.85C284.424 15.9083 284.683 15.1417 285.199 14.55C285.716 13.9583 286.399 13.5083 287.249 13.2C288.108 12.8833 289.037 12.675 290.037 12.575C291.495 12.4333 292.499 12.3042 293.049 12.1875C293.608 12.0708 293.887 11.8667 293.887 11.575C293.887 11.5667 293.887 11.5583 293.887 11.55C293.887 11.0583 293.649 10.6708 293.174 10.3875C292.708 10.1042 292.054 9.9625 291.212 9.9625C290.32 9.9625 289.637 10.125 289.162 10.45C288.695 10.7667 288.462 11.2542 288.462 11.9125H284.649C284.649 10.8458 284.937 9.94583 285.512 9.2125C286.095 8.47917 286.883 7.925 287.874 7.55C288.866 7.16667 289.987 6.975 291.237 6.975C292.404 6.975 293.483 7.15417 294.474 7.5125C295.466 7.8625 296.262 8.39167 296.862 9.1C297.47 9.80833 297.774 10.7083 297.774 11.8C297.774 11.975 297.774 12.15 297.774 12.325C297.774 12.4917 297.774 12.6625 297.774 12.8375V17.5375C297.774 17.8792 297.783 18.2083 297.799 18.525C297.824 18.8333 297.874 19.1167 297.949 19.375C298.033 19.6667 298.137 19.9083 298.262 20.1C298.387 20.2917 298.491 20.425 298.574 20.5H294.762C294.704 20.4417 294.612 20.3208 294.487 20.1375C294.37 19.9542 294.27 19.7417 294.187 19.5C294.087 19.2083 294.012 18.9167 293.962 18.625C293.92 18.325 293.899 17.975 293.899 17.575L294.699 18.125C294.466 18.675 294.087 19.15 293.562 19.55C293.045 19.9417 292.429 20.2458 291.712 20.4625C291.004 20.6708 290.237 20.775 289.412 20.775ZM290.449 17.875C291.058 17.875 291.624 17.7667 292.149 17.55C292.683 17.325 293.116 16.975 293.449 16.5C293.783 16.025 293.949 15.4042 293.949 14.6375V13.3L294.912 14.2375C294.362 14.4375 293.724 14.6042 292.999 14.7375C292.283 14.8625 291.566 14.9625 290.849 15.0375C289.999 15.1208 289.362 15.2667 288.937 15.475C288.52 15.675 288.312 16.0167 288.312 16.5C288.312 16.9583 288.491 17.3042 288.849 17.5375C289.208 17.7625 289.741 17.875 290.449 17.875ZM306.842 20.775C306.334 20.775 305.809 20.7292 305.267 20.6375C304.734 20.5542 304.234 20.3833 303.767 20.125C303.309 19.8583 302.938 19.4708 302.655 18.9625C302.371 18.4542 302.23 17.7833 302.23 16.95C302.23 16.7667 302.23 16.5792 302.23 16.3875C302.23 16.1958 302.23 16.0042 302.23 15.8125V10.225H299.167V7.225H300.03C300.53 7.225 300.926 7.20417 301.217 7.1625C301.517 7.12083 301.738 7.01667 301.88 6.85C302.03 6.675 302.126 6.40417 302.167 6.0375C302.209 5.67083 302.23 5.16667 302.23 4.525V2.85H306.117V7.225H309.98V10.225H306.117V15C306.117 15.15 306.117 15.2958 306.117 15.4375C306.117 15.5792 306.117 15.7167 306.117 15.85C306.117 16.425 306.184 16.8917 306.317 17.25C306.459 17.6083 306.805 17.7875 307.355 17.7875C307.63 17.7875 307.888 17.7625 308.13 17.7125C308.38 17.6625 308.567 17.6125 308.692 17.5625V20.475C308.517 20.55 308.271 20.6167 307.955 20.675C307.638 20.7417 307.267 20.775 306.842 20.775ZM312.179 20.5V7.225H316.016V20.5H312.179ZM314.091 5.0625C313.491 5.0625 312.966 4.90417 312.516 4.5875C312.075 4.27083 311.854 3.825 311.854 3.25C311.854 2.66667 312.075 2.21667 312.516 1.9C312.966 1.58333 313.491 1.425 314.091 1.425C314.7 1.425 315.225 1.58333 315.666 1.9C316.116 2.21667 316.341 2.66667 316.341 3.25C316.341 3.83333 316.116 4.28333 315.666 4.6C315.225 4.90833 314.7 5.0625 314.091 5.0625ZM325.522 20.7875C324.089 20.7875 322.826 20.4917 321.734 19.9C320.643 19.3083 319.789 18.4958 319.172 17.4625C318.564 16.4208 318.259 15.2208 318.259 13.8625C318.259 12.5125 318.564 11.3208 319.172 10.2875C319.789 9.24583 320.643 8.4375 321.734 7.8625C322.826 7.27917 324.089 6.9875 325.522 6.9875C326.955 6.9875 328.218 7.27917 329.309 7.8625C330.401 8.4375 331.251 9.24583 331.859 10.2875C332.476 11.3208 332.784 12.5125 332.784 13.8625C332.784 15.2208 332.476 16.4208 331.859 17.4625C331.251 18.4958 330.401 19.3083 329.309 19.9C328.218 20.4917 326.955 20.7875 325.522 20.7875ZM325.522 17.7125C326.197 17.7125 326.784 17.5542 327.284 17.2375C327.784 16.9208 328.172 16.475 328.447 15.9C328.722 15.3167 328.859 14.6375 328.859 13.8625C328.859 13.0875 328.722 12.4167 328.447 11.85C328.172 11.275 327.784 10.8333 327.284 10.525C326.784 10.2167 326.197 10.0625 325.522 10.0625C324.855 10.0625 324.268 10.2167 323.759 10.525C323.259 10.8333 322.872 11.275 322.597 11.85C322.322 12.4167 322.184 13.0875 322.184 13.8625C322.184 14.6375 322.322 15.3167 322.597 15.9C322.872 16.475 323.259 16.9208 323.759 17.2375C324.268 17.5542 324.855 17.7125 325.522 17.7125ZM344.555 20.5V14.8625C344.555 14.5458 344.555 14.2583 344.555 14C344.555 13.7417 344.555 13.5083 344.555 13.3C344.555 12.75 344.484 12.25 344.342 11.8C344.201 11.3417 343.947 10.975 343.58 10.7C343.213 10.425 342.684 10.2875 341.992 10.2875C341.392 10.2875 340.872 10.425 340.43 10.7C339.997 10.975 339.663 11.3583 339.43 11.85C339.197 12.3417 339.08 12.9083 339.08 13.55L338.005 12.775C338.005 11.625 338.255 10.6167 338.755 9.75C339.255 8.88333 339.93 8.20417 340.78 7.7125C341.638 7.22083 342.588 6.975 343.63 6.975C344.722 6.975 345.617 7.19583 346.317 7.6375C347.026 8.07083 347.551 8.67917 347.892 9.4625C348.242 10.2375 348.417 11.1458 348.417 12.1875C348.417 12.6125 348.417 13.0875 348.417 13.6125C348.417 14.1375 348.417 14.675 348.417 15.225V20.5H344.555ZM335.205 20.5V7.225H339.08V20.5H335.205Z" fill="white"/>
</svg>
