<svg width="57" height="57" viewBox="0 0 57 57" fill="none" xmlns="http://www.w3.org/2000/svg">
<path d="M53.8742 9.7194V12.6361H3.70752V9.7194C3.70752 6.17273 6.57752 3.30273 10.1242 3.30273H47.4575C51.0042 3.30273 53.8742 6.17273 53.8742 9.7194ZM53.8742 16.1361V47.0527C53.8742 50.5994 51.0042 53.4694 47.4575 53.4694H10.1242C6.57752 53.4694 3.70752 50.5994 3.70752 47.0527V16.1361H53.8742ZM16.8675 33.0527L21.4642 28.4561C22.1642 27.7794 22.1642 26.6594 21.4642 25.9827C20.7875 25.3061 19.6909 25.3061 18.9909 25.9827L13.1575 31.8161C12.4809 32.4927 12.4809 33.6127 13.1575 34.2894L18.9909 40.1227C19.3409 40.4727 19.7842 40.6361 20.2275 40.6361C20.6709 40.6361 21.1375 40.4727 21.4642 40.1227C22.1642 39.4461 22.1642 38.3261 21.4642 37.6494L16.8675 33.0527ZM32.1509 22.0394C31.2175 21.7594 30.2609 22.2961 29.9809 23.2061L24.2642 41.8727C23.9842 42.8061 24.4975 43.7861 25.4309 44.0661C25.5942 44.1127 25.7575 44.1361 25.9442 44.1361C26.6909 44.1361 27.3909 43.6461 27.6009 42.8994L33.3175 24.2327C33.5975 23.2994 33.0842 22.3194 32.1509 22.0394ZM44.4242 31.8161L38.5909 25.9827C37.8909 25.3061 36.7942 25.3061 36.1175 25.9827C35.4175 26.6594 35.4175 27.7794 36.1175 28.4561L40.7142 33.0527L36.1175 37.6494C35.4175 38.3261 35.4175 39.4461 36.1175 40.1227C36.4442 40.4727 36.8875 40.6361 37.3542 40.6361C37.8209 40.6361 38.2409 40.4727 38.5909 40.1227L44.4242 34.2894C45.1009 33.6127 45.1009 32.4927 44.4242 31.8161Z" fill="#FFC605"/>
</svg>
