<svg xmlns="http://www.w3.org/2000/svg" xmlns:xlink="http://www.w3.org/1999/xlink" width="64" zoomAndPan="magnify" viewBox="0 0 48 48" height="64" preserveAspectRatio="xMidYMid meet" version="1.2"><defs><clipPath id="7722b66963"><path d="M 0.488281 0 L 47.507812 0 L 47.507812 47.019531 L 0.488281 47.019531 Z M 0.488281 0 "/></clipPath></defs><g id="a9b5f51fd0"><path style=" stroke:none;fill-rule:nonzero;fill:#ffc605;fill-opacity:1;" d="M 38.410156 13.652344 L 36.894531 13.652344 C 36.054688 13.652344 35.375 12.972656 35.375 12.132812 L 33.859375 12.132812 C 33.859375 13.808594 35.21875 15.167969 36.894531 15.167969 L 36.894531 16.683594 L 38.410156 16.683594 L 38.410156 15.167969 C 40.082031 15.167969 41.441406 13.808594 41.441406 12.132812 C 41.441406 10.460938 40.082031 9.101562 38.410156 9.101562 L 36.894531 9.101562 C 36.054688 9.101562 35.375 8.421875 35.375 7.582031 C 35.375 6.746094 36.054688 6.066406 36.894531 6.066406 L 38.410156 6.066406 C 39.246094 6.066406 39.925781 6.746094 39.925781 7.582031 L 41.441406 7.582031 C 41.441406 5.910156 40.082031 4.550781 38.410156 4.550781 L 38.410156 3.035156 L 36.894531 3.035156 L 36.894531 4.550781 C 35.21875 4.550781 33.859375 5.910156 33.859375 7.582031 C 33.859375 9.257812 35.21875 10.617188 36.894531 10.617188 L 38.410156 10.617188 C 39.246094 10.617188 39.925781 11.296875 39.925781 12.132812 C 39.925781 12.972656 39.246094 13.652344 38.410156 13.652344 Z M 38.410156 13.652344 "/><path style=" stroke:none;fill-rule:nonzero;fill:#ffc605;fill-opacity:1;" d="M 9.589844 0 L 11.105469 0 L 11.105469 1.515625 L 9.589844 1.515625 Z M 9.589844 0 "/><path style=" stroke:none;fill-rule:nonzero;fill:#ffc605;fill-opacity:1;" d="M 6.078125 0.941406 L 6.835938 2.253906 L 5.519531 3.011719 L 4.761719 1.699219 Z M 6.078125 0.941406 "/><path style=" stroke:none;fill-rule:nonzero;fill:#ffc605;fill-opacity:1;" d="M 2.1875 4.273438 L 3.503906 5.03125 L 2.746094 6.34375 L 1.429688 5.585938 Z M 2.1875 4.273438 "/><path style=" stroke:none;fill-rule:nonzero;fill:#ffc605;fill-opacity:1;" d="M 18.507812 4.273438 L 19.265625 5.585938 L 17.953125 6.347656 L 17.195312 5.03125 Z M 18.507812 4.273438 "/><path style=" stroke:none;fill-rule:nonzero;fill:#ffc605;fill-opacity:1;" d="M 14.621094 0.945312 L 15.933594 1.703125 L 15.175781 3.015625 L 13.863281 2.257812 Z M 14.621094 0.945312 "/><path style=" stroke:none;fill-rule:nonzero;fill:#ffc605;fill-opacity:1;" d="M 10.347656 34.886719 C 11.601562 34.886719 12.625 33.867188 12.625 32.609375 C 12.625 31.355469 11.601562 30.335938 10.347656 30.335938 C 9.09375 30.335938 8.074219 31.355469 8.074219 32.609375 C 8.074219 33.867188 9.09375 34.886719 10.347656 34.886719 Z M 10.347656 31.851562 C 10.765625 31.851562 11.105469 32.191406 11.105469 32.609375 C 11.105469 33.03125 10.765625 33.371094 10.347656 33.371094 C 9.929688 33.371094 9.589844 33.03125 9.589844 32.609375 C 9.589844 32.191406 9.929688 31.851562 10.347656 31.851562 Z M 10.347656 31.851562 "/><path style=" stroke:none;fill-rule:nonzero;fill:#ffc605;fill-opacity:1;" d="M 5.039062 40.953125 L 6.558594 40.953125 L 6.558594 42.46875 L 5.039062 42.46875 Z M 5.039062 40.953125 "/><path style=" stroke:none;fill-rule:nonzero;fill:#ffc605;fill-opacity:1;" d="M 14.140625 40.953125 L 15.65625 40.953125 L 15.65625 42.46875 L 14.140625 42.46875 Z M 14.140625 40.953125 "/><g clip-rule="nonzero" clip-path="url(#7722b66963)"><path style=" stroke:none;fill-rule:nonzero;fill:#ffc605;fill-opacity:1;" d="M 38.460938 28.050781 C 38.925781 26.582031 39.167969 25.058594 39.167969 23.511719 C 39.167969 22.21875 38.992188 20.929688 38.660156 19.667969 C 43.625 19.160156 47.511719 14.953125 47.511719 9.859375 C 47.511719 4.421875 43.085938 0 37.652344 0 C 32.554688 0 28.347656 3.886719 27.84375 8.851562 C 25.027344 8.113281 22.082031 8.191406 19.296875 9.101562 L 17.128906 9.101562 C 16.75 5.691406 13.855469 3.035156 10.347656 3.035156 C 6.839844 3.035156 3.945312 5.691406 3.566406 9.101562 L 0.488281 9.101562 L 0.488281 19.71875 L 9.328125 19.71875 C 9.003906 20.964844 8.832031 22.234375 8.832031 23.511719 C 8.832031 24.820312 9.011719 26.121094 9.355469 27.398438 C 6.902344 27.867188 5.039062 30.023438 5.039062 32.609375 L 5.039062 32.867188 C 5.039062 33.828125 5.300781 34.773438 5.796875 35.597656 L 6.523438 36.8125 C 2.875 37.613281 0.488281 39.511719 0.488281 41.710938 C 0.488281 44.6875 4.820312 47.019531 10.347656 47.019531 C 15.878906 47.019531 20.207031 44.6875 20.207031 41.710938 C 20.207031 39.511719 17.824219 37.613281 14.171875 36.808594 L 14.890625 35.609375 C 17.515625 37.589844 20.710938 38.679688 24 38.679688 C 25.351562 38.679688 26.695312 38.484375 28.011719 38.121094 C 28.375 38.894531 29.15625 39.4375 30.066406 39.4375 L 30.066406 43.988281 C 30.066406 45.660156 31.425781 47.019531 33.101562 47.019531 C 34.773438 47.019531 36.132812 45.660156 36.132812 43.988281 L 36.132812 39.878906 L 43.609375 40.945312 L 47.511719 40.953125 L 47.511719 27.300781 L 43.71875 27.300781 Z M 29.308594 9.84375 C 29.316406 5.25 33.054688 1.515625 37.652344 1.515625 C 42.25 1.515625 45.992188 5.257812 45.992188 9.859375 C 45.992188 14.457031 42.25 18.203125 37.652344 18.203125 C 33.050781 18.203125 29.308594 14.457031 29.308594 9.859375 C 29.308594 9.855469 29.308594 9.851562 29.308594 9.84375 Z M 18.691406 10.617188 L 18.691406 18.203125 L 14.140625 18.203125 L 14.140625 10.617188 Z M 10.347656 4.550781 C 13.019531 4.550781 15.226562 6.53125 15.597656 9.101562 L 14.0625 9.101562 C 13.710938 7.371094 12.179688 6.066406 10.347656 6.066406 C 8.519531 6.066406 6.984375 7.371094 6.632812 9.101562 L 5.101562 9.101562 C 5.472656 6.53125 7.679688 4.550781 10.347656 4.550781 Z M 12.484375 9.101562 L 8.214844 9.101562 C 8.527344 8.21875 9.363281 7.582031 10.351562 7.582031 C 11.335938 7.582031 12.171875 8.21875 12.484375 9.101562 Z M 2.007812 18.203125 L 2.007812 10.617188 L 12.625 10.617188 L 12.625 18.203125 Z M 6.558594 32.609375 C 6.558594 30.519531 8.257812 28.820312 10.347656 28.820312 C 12.441406 28.820312 14.140625 30.519531 14.140625 32.609375 L 14.140625 32.867188 C 14.140625 33.554688 13.953125 34.230469 13.601562 34.816406 L 10.347656 40.238281 L 7.097656 34.816406 C 6.742188 34.230469 6.558594 33.554688 6.558594 32.867188 Z M 18.691406 41.710938 C 18.691406 43.503906 15.265625 45.503906 10.347656 45.503906 C 5.433594 45.503906 2.007812 43.503906 2.007812 41.710938 C 2.007812 40.207031 4.226562 38.765625 7.351562 38.1875 L 10.347656 43.183594 L 13.347656 38.1875 C 16.472656 38.765625 18.691406 40.207031 18.691406 41.710938 Z M 27.792969 31.09375 L 27.792969 36.609375 C 23.53125 37.839844 18.90625 36.890625 15.488281 34.160156 C 15.597656 33.738281 15.65625 33.304688 15.65625 32.867188 L 15.65625 32.609375 C 15.65625 29.875 13.574219 27.617188 10.914062 27.332031 C 10.546875 26.078125 10.347656 24.796875 10.347656 23.511719 C 10.347656 22.234375 10.542969 20.960938 10.90625 19.71875 L 19.269531 19.71875 C 18.4375 20.757812 17.933594 22.074219 17.933594 23.511719 L 19.449219 23.511719 C 19.449219 21 21.492188 18.960938 24 18.960938 C 26.507812 18.960938 28.550781 21 28.550781 23.511719 C 28.550781 26.019531 26.507812 28.0625 24 28.0625 C 22.699219 28.0625 21.46875 27.492188 20.617188 26.542969 L 21.726562 26.542969 L 21.726562 25.027344 L 17.933594 25.027344 L 17.933594 28.820312 L 19.449219 28.820312 L 19.449219 27.507812 C 20.585938 28.796875 22.242188 29.578125 24 29.578125 C 27.34375 29.578125 30.066406 26.855469 30.066406 23.511719 C 30.066406 20.164062 27.34375 17.441406 24 17.441406 C 22.566406 17.441406 21.246094 17.945312 20.207031 18.78125 L 20.207031 10.414062 C 22.707031 9.691406 25.324219 9.695312 27.820312 10.421875 C 28.105469 15.410156 32.101562 19.40625 37.085938 19.691406 C 37.453125 20.941406 37.652344 22.222656 37.652344 23.511719 C 37.652344 25.152344 37.34375 26.753906 36.769531 28.289062 L 33.050781 28.820312 L 30.066406 28.820312 C 28.8125 28.820312 27.792969 29.839844 27.792969 31.09375 Z M 30.066406 37.917969 C 29.648438 37.917969 29.3125 37.582031 29.308594 37.164062 L 29.308594 36.402344 L 30.824219 36.402344 L 30.824219 34.886719 L 29.308594 34.886719 L 29.308594 33.371094 L 30.824219 33.371094 L 30.824219 31.851562 L 29.308594 31.851562 L 29.308594 31.09375 C 29.308594 30.675781 29.648438 30.335938 30.066406 30.335938 L 32.34375 30.335938 L 32.34375 37.917969 Z M 34.617188 43.988281 C 34.617188 44.824219 33.9375 45.503906 33.101562 45.503906 C 32.265625 45.503906 31.582031 44.824219 31.582031 43.988281 L 31.582031 39.4375 L 33.046875 39.4375 L 34.617188 39.660156 Z M 44.476562 28.820312 L 45.992188 28.820312 L 45.992188 39.4375 L 44.476562 39.4375 L 44.476562 37.917969 L 42.960938 37.917969 L 42.960938 39.320312 L 33.859375 38.019531 L 33.859375 30.234375 L 42.960938 28.933594 L 42.960938 36.402344 L 44.476562 36.402344 Z M 44.476562 28.820312 "/></g></g></svg>